<?xml version="1.0" encoding="utf-8"?>
<!-- Generator: Adobe Illustrator 16.0.4, SVG Export Plug-In . SVG Version: 6.00 Build 0)  -->
<!DOCTYPE svg PUBLIC "-//W3C//DTD SVG 1.1//EN" "http://www.w3.org/Graphics/SVG/1.1/DTD/svg11.dtd">
<svg version="1.1" id="Icons" xmlns="http://www.w3.org/2000/svg" xmlns:xlink="http://www.w3.org/1999/xlink" x="0px" y="0px"
	 width="20px" height="20px" viewBox="0 0 20 20" enable-background="new 0 0 20 20" xml:space="preserve">
<g id="ic_x5F_accountCircle_x0D_">
	<path fill="#717171" d="M10,0C4.476,0,0,4.477,0,10s4.476,10,10,10s10-4.477,10-10S15.523,0,10,0z M10,3c1.656,0,3,1.344,3,3
		c0,1.658-1.344,3-3,3C8.344,9,7,7.658,7,6C7,4.344,8.344,3,10,3z M10,17.2c-2.504,0-4.707-1.279-5.998-3.22
		C4.028,11.993,8.006,10.9,10,10.9s5.972,1.093,5.998,3.08C14.707,15.921,12.504,17.2,10,17.2z"/>
	<rect x="-2" y="-2" fill="none" width="24" height="24"/>
</g>
</svg>
